<?xml version="1.0" standalone="no"?>
<!DOCTYPE svg PUBLIC "-//W3C//DTD SVG 20010904//EN"
 "http://www.w3.org/TR/2001/REC-SVG-20010904/DTD/svg10.dtd">
<svg version="1.0" xmlns="http://www.w3.org/2000/svg"
 width="247.000000pt" height="150.000000pt" viewBox="0 0 247.000000 150.000000"
 preserveAspectRatio="xMidYMid meet">
<metadata>
Created by potrace 1.16, written by Peter Selinger 2001-2019
</metadata>
<g transform="translate(0.000000,150.000000) scale(0.100000,-0.100000)"
fill="#000000" stroke="none">
<path d="M985 1475 c-115 -18 -266 -57 -363 -95 -113 -44 -235 -112 -238 -133
-1 -9 -1 -17 1 -17 14 0 103 64 99 71 -3 5 2 6 11 3 8 -4 21 -2 28 4 6 5 53
26 102 45 304 120 669 148 1003 76 50 -11 98 -17 105 -13 6 4 9 4 5 -1 -4 -4
34 -22 85 -40 51 -17 120 -46 155 -64 34 -17 68 -29 74 -25 6 4 8 3 5 -3 -8
-13 60 -56 74 -47 14 8 -1 26 -17 20 -8 -3 -13 0 -11 6 3 17 -187 111 -299
147 -183 58 -277 72 -514 76 -151 3 -242 0 -305 -10z"/>
<path d="M299 1195 c-67 -54 -145 -149 -179 -215 -39 -76 -52 -148 -48 -253 2
-67 8 -102 16 -105 7 -2 9 -8 6 -13 -8 -13 54 -142 65 -135 5 3 15 -2 22 -12
13 -15 12 -16 -3 -3 -13 10 -18 10 -18 1 0 -14 175 -190 189 -190 21 0 -1 30
-80 110 -185 186 -227 387 -124 589 32 65 113 161 178 212 45 36 69 70 49 69
-4 0 -37 -25 -73 -55z"/>
<path d="M2333 1016 c3 -6 10 -10 16 -8 7 1 10 -2 6 -7 -3 -6 4 -29 15 -52 12
-23 28 -73 36 -112 60 -288 -188 -578 -613 -716 -188 -61 -296 -76 -543 -76
-206 1 -236 3 -351 28 -195 41 -372 110 -486 188 -23 16 -44 29 -46 29 -12 0
1 -31 19 -45 23 -17 38 -19 28 -3 -4 7 -3 8 5 4 6 -4 9 -11 6 -16 -8 -12 73
-53 87 -44 7 4 8 3 4 -4 -4 -7 -6 -12 -4 -12 2 0 36 -13 76 -30 40 -16 80 -26
89 -23 12 5 14 3 8 -7 -6 -10 -3 -12 13 -8 12 4 20 3 17 -2 -6 -9 168 -53 280
-71 102 -16 406 -16 510 0 126 19 295 63 288 74 -3 6 -1 7 6 3 30 -19 372 148
356 174 -3 5 0 12 6 16 8 4 9 3 5 -4 -30 -49 91 56 147 126 83 106 127 222
127 333 0 66 -19 161 -32 153 -4 -3 -5 1 -2 9 8 21 -41 114 -61 114 -8 0 -14
-5 -12 -11z"/>
<path d="M1580 961 c-25 -4 -61 -15 -79 -25 l-35 -19 25 -20 24 -19 9 26 c15
41 88 57 116 24 8 -9 22 -18 30 -20 20 -4 39 -29 40 -51 0 -15 -6 -14 -44 13
-40 27 -46 28 -54 14 -5 -10 -20 -18 -33 -19 -13 -1 -23 -7 -22 -13 1 -5 -7
-12 -17 -15 -11 -3 -20 -1 -20 4 0 5 -7 9 -15 9 -17 0 -19 -9 -6 -29 5 -8 16
-11 25 -8 19 7 22 -23 6 -53 -12 -22 -105 -72 -116 -62 -3 4 -5 1 -3 -6 3 -8
8 -13 12 -13 4 1 20 -13 36 -31 l29 -32 16 38 c9 22 14 47 10 58 -3 10 -1 18
5 18 13 0 25 -41 14 -49 -14 -10 -9 -71 7 -81 20 -12 33 10 17 29 -8 10 -3 8
16 -3 15 -10 27 -14 27 -10 0 5 11 -4 25 -19 14 -15 30 -27 35 -27 6 0 10 -5
10 -10 0 -12 -48 -2 -69 14 -11 8 -15 8 -18 -1 -3 -7 -13 -13 -24 -13 -38 0
-18 -15 22 -17 22 0 48 -8 58 -17 10 -9 31 -16 47 -16 36 0 103 30 126 56 17
20 52 94 46 98 -8 6 -126 36 -141 36 -9 0 -17 -6 -17 -14 0 -9 8 -13 23 -10
17 3 16 1 -5 -8 -16 -7 -28 -15 -28 -20 0 -4 11 -3 24 3 20 9 29 7 54 -11 26
-19 29 -26 21 -42 -6 -11 -17 -17 -24 -14 -10 3 -12 0 -8 -11 5 -13 2 -15 -11
-10 -10 4 -26 7 -35 7 -10 0 -30 11 -44 24 -15 14 -35 27 -46 31 -46 14 -57
149 -17 208 13 19 21 39 18 42 -4 4 7 1 23 -8 17 -8 37 -26 44 -40 l13 -24 70
13 c39 8 73 16 77 19 7 8 -27 70 -50 91 -42 38 -117 50 -219 35z"/>
<path d="M778 894 c3 -48 1 -65 -7 -60 -6 4 -11 14 -11 22 0 8 -5 14 -11 14
-11 0 -5 -29 17 -72 22 -43 18 -53 -26 -56 -30 -2 -40 1 -40 13 0 9 -7 14 -20
12 -30 -5 -32 -11 -16 -56 12 -36 12 -42 0 -37 -22 8 -17 -21 8 -44 12 -11 25
-20 30 -20 4 0 8 -7 8 -15 0 -8 8 -15 18 -15 29 0 16 58 -22 92 -23 21 -26 28
-13 28 22 0 72 -32 73 -47 2 -29 5 -33 19 -33 10 0 15 -10 15 -28 0 -17 9 -37
22 -48 12 -10 18 -14 15 -7 -4 6 -3 14 2 18 6 3 4 19 -5 40 -10 25 -14 78 -14
200 l0 165 -23 0 c-22 0 -23 -3 -19 -66z"/>
<path d="M1104 941 c10 -11 16 -24 13 -28 -3 -5 7 -14 24 -20 33 -13 39 0 9
19 -22 14 -26 28 -9 28 5 0 22 -13 37 -30 15 -16 42 -33 60 -36 41 -8 49 -20
17 -27 -14 -2 -28 0 -31 4 -3 5 -15 9 -27 9 -15 0 -18 -3 -9 -8 7 -5 14 -17
16 -28 3 -10 7 -26 10 -35 5 -10 -4 -20 -29 -32 -48 -23 -53 -22 -58 11 -2 15
-4 -34 -5 -108 -1 -128 1 -136 19 -136 10 0 19 4 19 9 0 5 7 4 15 -3 23 -19
26 -9 8 28 -8 17 -23 32 -32 33 -11 0 -12 2 -3 6 10 4 10 8 1 19 -8 10 -8 22
0 44 5 17 8 36 5 44 -6 15 69 52 85 42 20 -13 13 -38 -9 -31 -18 6 -19 5 -5
-22 19 -36 19 -49 0 -33 -11 9 -15 9 -15 1 0 -7 -5 -9 -11 -5 -6 4 -9 20 -5
38 l5 31 -15 -28 c-12 -21 -13 -32 -4 -42 8 -10 8 -19 1 -34 -6 -10 -7 -21 -3
-23 4 -2 18 -20 31 -40 18 -30 29 -38 52 -38 l29 0 0 170 0 170 30 0 c30 0 30
0 16 28 -12 24 -20 28 -44 24 -21 -3 -42 4 -68 22 -29 19 -51 26 -88 26 -48 0
-49 0 -32 -19z"/>
</g>
</svg>
